<svg xmlns="http://www.w3.org/2000/svg" width="49" height="49" viewBox="0 0 49 49">
    <path fill="#4B35E6" fill-rule="nonzero" d="M27.486 48.817C14.056 50.467 1.832 40.916.183 27.486-1.467 14.056 8.084 1.832 21.514.183c13.43-1.65 25.654 7.901 27.303 21.331 1.65 13.43-7.901 25.654-21.331 27.303zM39.05 16.178a3.586 3.586 0 0 0-.653-1.499 2.22 2.22 0 0 0-1.3-.923 3.427 3.427 0 0 0-1.689-.165l-21.343 2.62-.956 4.851 19.337-2.374-1.884 9.906-19.332 2.374-.957 4.85 21.444-2.633a5.878 5.878 0 0 0 1.826-.596c.558-.422 1.203-.858 1.724-1.42a9.353 9.353 0 0 0 1.339-1.743c.3-.612.542-1.252.722-1.911l1.72-9.41a3.44 3.44 0 0 0 .002-1.927zm-18.329 6.267L9.347 23.842 8.306 28l11.49-1.411.925-4.144z" opacity=".124"/>
</svg>
