<svg xmlns="http://www.w3.org/2000/svg" width="31" height="31" viewBox="0 0 31 31">
    <g fill="none" fill-rule="nonzero">
        <path fill="#FFF" d="M15.601 15.85l2.384-.871.592-2.228-.02-.055-2.346.857 1.69-6.365h-4.794l-2.212 8.306-1.845.674-.61 2.297 1.844-.673-1.302 4.896h12.76l.817-3.047h-7.965l1.007-3.791"/>
        <path fill="#BEBEBE" d="M15.5 0C6.94 0 0 6.94 0 15.5 0 24.06 6.94 31 15.5 31 24.06 31 31 24.06 31 15.5 31 6.94 24.06 0 15.5 0zm6.241 22.688H8.981l1.303-4.896-1.845.673.61-2.297 1.846-.674 2.212-8.306h4.794l-1.69 6.365 2.346-.857.02.055-.592 2.228-2.384.87-1.007 3.792h7.965l-.818 3.047z"/>
    </g>
</svg>
