<svg xmlns="http://www.w3.org/2000/svg" width="31" height="31" viewBox="0 0 31 31">
    <g fill="none" fill-rule="nonzero">
        <path fill="#F7931A" d="M30.535 19.251c-2.069 8.303-10.48 13.356-18.786 11.284C3.444 28.463-1.607 20.055.465 11.752 2.537 3.448 10.945-1.608 19.248.465c8.304 2.072 13.36 10.48 11.287 18.786z"/>
        <path fill="#FFF" d="M22.335 13.292c.309-2.063-1.262-3.172-3.41-3.911l.698-2.794-1.701-.424-.68 2.72a66.98 66.98 0 0 0-1.362-.32l.682-2.739-1.7-.423-.695 2.792-3.43-.85-.453 1.818s1.262.289 1.235.307c.69.172.814.627.793.989l-1.909 7.654c-.084.21-.298.523-.779.403.017.025-1.236-.31-1.236-.31l-.845 1.95 3.426.864-.704 2.827 1.699.424.697-2.796c.465.125.915.242 1.355.351l-.695 2.783 1.701.424.704-2.821c2.9.549 5.082.327 5.999-2.294.74-2.112-.036-3.33-1.563-4.125 1.112-.257 1.949-.988 2.172-2.498m-3.886 5.448c-.527 2.112-4.082.971-5.235.684l.934-3.744c1.153.288 4.85.858 4.302 3.06m.527-5.48c-.48 1.923-3.44.946-4.4.707l.845-3.397c.961.24 4.054.687 3.553 2.69"/>
    </g>
</svg>
