<svg xmlns="http://www.w3.org/2000/svg" width="789" height="608" viewBox="0 0 789 608">
    <g fill="#FFF" fill-rule="nonzero" opacity=".703">
        <path d="M399.5 100c-9.665 0-17.5 7.835-17.5 17.5s7.835 17.5 17.5 17.5 17.5-7.835 17.5-17.5-7.835-17.5-17.5-17.5zm7.574 26h-14.46l1.476-5.685-2.09.782.691-2.668 2.092-.783 2.506-9.646h5.433l-1.915 7.392 2.659-.996.022.065-.671 2.587-2.701 1.011-1.142 4.403H408l-.926 3.538zM296.747 570.05c-13.007-3.729-20.528-17.296-16.798-30.303 3.73-13.007 17.297-20.528 30.304-16.798 13.007 3.73 20.528 17.297 16.798 30.304-3.73 13.007-17.297 20.528-30.304 16.798zm23.398-25.525c.121-.54.116-1.1-.015-1.635a2.22 2.22 0 0 0-.836-1.358 3.427 3.427 0 0 0-1.49-.812l-20.67-5.927-2.776 4.091 18.727 5.37-5.604 8.383-18.723-5.369-2.776 4.092 20.768 5.955c.624.159 1.27.214 1.913.164.679-.17 1.443-.32 2.142-.632a9.353 9.353 0 0 0 1.913-1.082c.516-.446.989-.94 1.412-1.478l5.26-7.989a3.44 3.44 0 0 0 .755-1.773zm-19.32-1.393l-11.016-3.159-2.583 3.42 11.127 3.192 2.472-3.453zM90.11 20.854l21.478 1.425 13.31 34.673-21.477-1.424-13.31-34.674zM113.84.142L90.667 19.69l21.335 1.54L135.07 1.663 113.839.142zm5.596 16.055l8.144 21.216 21.755-.063-13.474-35.102-16.425 13.95zM38.169 465.641c-4.044 2.355-6.439 6.607-6.439 11.09 0 2.355.954 4.728 2.148 6.845.954 1.891 1.422 5.191-1.908 6.845-2.376 1.409-5.484.47-6.906-1.891-1.422-1.891-3.09-3.782-5.239-5.192-4.044-2.354-8.814-2.354-12.859 0-4.044 2.355-6.433 6.617-6.433 11.102s2.376 8.736 6.432 11.097c4.044 2.355 8.815 2.355 12.86 0 2.148-1.183 3.816-3.062 4.998-5.191.954-1.654 3.576-3.782 6.906-1.891 2.377 1.409 3.09 4.49 1.908 6.844-1.194 2.129-1.908 4.49-1.908 6.845 0 4.49 2.377 8.735 6.44 11.09 4.043 2.355 8.814 2.355 12.858 0 4.045-2.355 6.44-6.607 6.44-11.09 0-4.484-2.383-8.736-6.439-11.097-2.148-1.183-4.53-1.653-7.147-1.653-2.148 0-4.998-1.41-4.998-4.954 0-2.836 2.148-4.953 4.998-4.953 2.376 0 4.999-.47 7.147-1.653 4.044-2.355 6.439-6.607 6.439-11.09 0-4.484-2.383-8.736-6.439-11.09C49.12 464.47 46.744 464 44.596 464c-2.136-.012-4.53.47-6.426 1.641M766.97 586.468l-21.114-12.337 21.115-34.631 21.115 34.631-7.845 4.583-13.27 7.754zm.001 21.032l-21.115-29.41 21.115 12.33 21.127-12.33-21.127 29.41zM646.948 83.21l1.439-5.763-3.51-.874-1.402 5.611c-.921-.23-1.868-.447-2.81-.66l1.407-5.65-3.506-.874-1.434 5.761-7.077-1.753-.934 3.748s2.604.597 2.549.634c1.42.355 1.678 1.295 1.635 2.04l-3.938 15.79c-.174.432-.614 1.079-1.607.831.035.051-2.55-.64-2.55-.64l-1.743 4.023 7.067 1.784-1.453 5.83 3.505.875 1.439-5.768c.96.26 1.886.5 2.795.725l-1.433 5.741 3.509.875 1.452-5.82c5.984 1.132 10.483.675 12.375-4.732 1.525-4.357-.075-6.87-3.223-8.51 2.292-.53 4.019-2.038 4.48-5.153.638-4.257-2.602-6.545-7.032-8.07zm-.985 19.31c-1.087 4.357-8.42 2.003-10.8 1.411l1.927-7.723c2.378.593 10.004 1.769 8.874 6.312m1.087-11.303c-.989 3.965-7.095 1.95-9.077 1.456l1.745-7.007c1.982.495 8.361 1.416 7.33 5.55" opacity=".194"/>
    </g>
</svg>
