<svg xmlns="http://www.w3.org/2000/svg" width="57" height="61" viewBox="0 0 57 61">
    <path fill="#4B35E6" fill-rule="nonzero" d="M37.68 1.641c-4.05 2.355-6.447 6.607-6.447 11.09 0 2.355.955 4.728 2.151 6.845.955 1.891 1.424 5.191-1.91 6.845-2.379 1.409-5.491.47-6.915-1.891-1.423-1.891-3.093-3.782-5.244-5.192-4.05-2.354-8.825-2.354-12.875 0C2.391 21.693 0 25.955 0 30.44c0 4.486 2.379 8.736 6.44 11.097 4.048 2.355 8.825 2.355 12.874 0 2.15-1.183 3.82-3.062 5.004-5.191.955-1.653 3.58-3.782 6.915-1.891 2.379 1.409 3.093 4.49 1.91 6.844-1.196 2.129-1.91 4.49-1.91 6.845 0 4.49 2.379 8.735 6.446 11.09 4.049 2.355 8.825 2.355 12.874 0C54.603 56.88 57 52.627 57 48.144c0-4.484-2.385-8.736-6.446-11.097-2.151-1.183-4.536-1.653-7.155-1.653-2.151 0-5.005-1.41-5.005-4.954 0-2.836 2.151-4.953 5.005-4.953 2.378 0 5.004-.47 7.155-1.653C54.603 21.479 57 17.227 57 12.744c0-4.484-2.385-8.736-6.446-11.09C48.644.47 46.264 0 44.114 0c-2.138-.012-4.536.47-6.434 1.641" opacity=".124"/>
</svg>
