<svg xmlns="http://www.w3.org/2000/svg" width="31" height="31" viewBox="0 0 31 31">
    <g fill="none" fill-rule="nonzero">
        <circle cx="15.5" cy="15.5" r="15.5" fill="#2573C2"/>
        <g fill="#FFF">
            <path d="M25.615 11.42a2.227 2.227 0 0 0-.297-.985 1.411 1.411 0 0 0-.754-.676 2.224 2.224 0 0 0-1.06-.233H9.746l-.985 2.955h12.465l-1.969 6.038H6.795l-.986 2.955h13.823c.412-.012.82-.09 1.206-.233.388-.22.831-.443 1.206-.753.366-.289.697-.62.986-.986a6.7 6.7 0 0 0 .607-1.138l1.826-5.74a2.13 2.13 0 0 0 .152-1.204z"/>
            <path d="M13.674 14.13H6.34l-.986 2.73h7.409z"/>
        </g>
    </g>
</svg>
