<svg xmlns="http://www.w3.org/2000/svg" width="43" height="39" viewBox="0 0 43 39">
    <path fill="#4B35E6" fill-rule="nonzero" d="M42.99 12.402a.731.731 0 0 0-.039-.384c-.006-.017-.008-.035-.016-.052-.005-.012-.015-.021-.022-.033l-.016-.038L35.728.339a.74.74 0 0 0-.115-.142l-.002-.001a.704.704 0 0 0-.213-.134c-.01-.004-.017-.013-.027-.017-.008-.003-.017-.002-.025-.004A.698.698 0 0 0 35.121 0H7.881a.696.696 0 0 0-.222.04c-.008.003-.015.001-.023.004-.01.004-.017.012-.027.017a.713.713 0 0 0-.206.126c-.003.004-.008.006-.012.009a.725.725 0 0 0-.117.143L.106 11.894c-.007.012-.01.026-.016.038-.007.012-.017.021-.023.034-.008.016-.009.034-.016.052a.717.717 0 0 0 .018.57c.006.013.008.027.016.04.011.021.028.037.041.056.01.016.016.032.028.047l20.78 25.99a.031.031 0 0 0 .005.005l.003.005c.002.002.006.003.008.006a.705.705 0 0 0 .275.2.703.703 0 0 0 .275.063.719.719 0 0 0 .246-.044c.012-.004.02-.015.032-.02.037-.015.065-.04.098-.06a.694.694 0 0 0 .148-.118c.01-.01.025-.016.034-.027l20.789-26c.011-.015.017-.032.028-.047.013-.02.03-.035.041-.056.007-.013.01-.027.016-.04a.686.686 0 0 0 .032-.083c.01-.034.02-.068.026-.103zM23.007 1.445h11.081l-3.484 9.422-7.597-9.422zm6.306 10.111H13.688L21.5 1.87l7.813 9.687zm-16.968-.627l-3.44-9.484h11.089l-7.649 9.484zm17.47 2.072l-8.44 22.826-8.28-22.826h16.72zm5.468-10.65l5.711 9.206H31.88l3.404-9.207zM7.71 2.358l3.336 9.197h-9.04L7.71 2.36zm3.86 10.642l7.77 21.424L2.21 13h9.36zm11.648 21.977L31.345 13h9.445L23.218 34.978z"/>
</svg>
