<svg xmlns="http://www.w3.org/2000/svg" width="31" height="31" viewBox="0 0 31 31">
    <g fill="#C2A633" fill-rule="nonzero">
        <path d="M15.872 10.214h-2.215v4.367h3.485v1.828h-3.485v4.366h2.323c.597 0 4.901.067 4.894-5.08-.006-5.147-4.174-5.48-5.002-5.48z"/>
        <path d="M15.5 0C6.94 0 0 6.94 0 15.5 0 24.06 6.94 31 15.5 31 24.06 31 31 24.06 31 15.5 31 6.94 24.06 0 15.5 0zm.609 23.872h-5.613v-7.463h-1.98V14.58h1.98V7.118h4.817c1.14 0 8.689-.237 8.689 8.517 0 8.898-7.893 8.237-7.893 8.237z"/>
    </g>
</svg>
