<svg xmlns="http://www.w3.org/2000/svg" width="29" height="31" viewBox="0 0 29 31">
    <defs>
        <linearGradient id="a" x1="0%" y1="0%" y2="0%">
            <stop offset="0%" stop-color="#11AAE2"/>
            <stop offset="59%" stop-color="#0880B7"/>
            <stop offset="100%" stop-color="#016197"/>
        </linearGradient>
    </defs>
    <path fill="url(#a)" fill-rule="nonzero" d="M19.17.834c-2.06 1.197-3.28 3.358-3.28 5.636 0 1.197.487 2.403 1.095 3.479.486.96.724 2.638-.972 3.478-1.21.716-2.794.239-3.518-.961-.724-.961-1.574-1.922-2.668-2.638-2.06-1.197-4.49-1.197-6.55 0A6.538 6.538 0 0 0 0 15.47c0 2.279 1.21 4.44 3.276 5.639 2.06 1.197 4.49 1.197 6.55 0 1.095-.601 1.944-1.556 2.546-2.638.486-.84 1.822-1.922 3.518-.961 1.21.716 1.574 2.281.972 3.478-.608 1.082-.972 2.282-.972 3.478a6.51 6.51 0 0 0 3.28 5.637c2.06 1.196 4.49 1.196 6.55 0 2.06-1.197 3.28-3.358 3.28-5.637 0-2.278-1.213-4.439-3.28-5.639-1.094-.601-2.307-.84-3.64-.84-1.094 0-2.546-.716-2.546-2.517 0-1.442 1.094-2.518 2.546-2.518 1.21 0 2.546-.238 3.64-.84C27.78 10.916 29 8.755 29 6.476c0-2.278-1.213-4.439-3.28-5.636C24.748.24 23.538 0 22.444 0c-1.088-.006-2.308.239-3.273.834"/>
</svg>
