<svg xmlns="http://www.w3.org/2000/svg" width="146" height="142" viewBox="0 0 146 142">
    <defs>
        <linearGradient id="a" x1="0%" y1="0%" y2="100%">
            <stop offset="0%" stop-color="#3D6BFB"/>
            <stop offset="100%" stop-color="#5A00D1"/>
        </linearGradient>
    </defs>
    <path fill="url(#a)" fill-rule="nonzero" d="M373.588 1288.186l6.905-28.662c.428.044.852.13 1.296.13 7.1 0 12.875-5.754 12.875-12.827 0-7.072-5.776-12.827-12.875-12.827-7.104 0-12.876 5.755-12.876 12.827 0 5.25 3.189 9.76 7.73 11.746l-6.835 28.354c-3.946-1.113-8.098-1.752-12.4-1.752-12.199 0-23.264 4.823-31.449 12.622l-23.513-26.341c4.282-3.797 7.036-9.268 7.036-15.417 0-11.426-9.33-20.72-20.8-20.72-11.469 0-20.799 9.294-20.799 20.72 0 11.43 9.33 20.721 20.8 20.721 3.866 0 7.444-1.125 10.546-2.964l23.98 26.866c-6.925 7.839-11.184 18.05-11.354 29.25l-21.243 1.642c.012-.181.063-.35.063-.532 0-9.252-7.55-16.775-16.837-16.775-9.29 0-16.838 7.523-16.838 16.775 0 9.247 7.547 16.774 16.838 16.774 7.693 0 14.123-5.198 16.128-12.235l22.032-1.717c1.691 23.519 21.385 42.156 45.426 42.156 25.141 0 45.576-20.374 45.576-45.416-.008-19.356-12.254-35.877-29.412-42.398zm-.713-41.363c0-4.898 4-8.88 8.914-8.88 4.912 0 8.914 3.982 8.914 8.88 0 4.898-4.002 8.88-8.914 8.88-4.913 0-8.914-3.986-8.914-8.88zm-101.026 9.212c0-9.247 7.551-16.774 16.837-16.774 9.287 0 16.838 7.527 16.838 16.774 0 9.248-7.551 16.774-16.838 16.774-9.286 0-16.837-7.522-16.837-16.774zm1.98 87.818c-7.099 0-12.875-5.75-12.875-12.827 0-7.07 5.776-12.828 12.876-12.828s12.876 5.759 12.876 12.828c0 7.076-5.777 12.827-12.876 12.827zm83.587 27.257c-22.464 0-40.672-18.148-40.672-40.526 0-22.371 18.208-40.519 40.672-40.519 22.455 0 40.663 18.148 40.663 40.519-.004 22.382-18.208 40.526-40.663 40.526zm-.234-43.747h-3.736v-8.289h3.736c2.183 0 3.7.13 4.54.411.848.26 1.506.726 1.941 1.35.444.631.682 1.4.682 2.289 0 .864-.246 1.626-.713 2.281-.48.655-1.181 1.149-2.112 1.472-.931.324-2.381.486-4.338.486zm7.12 7.108c.47.71.704 1.56.704 2.558 0 1.188-.34 2.206-1.006 3.043-.665.837-1.47 1.397-2.42 1.673-.96.257-2.16.41-3.598.41h-2.492c-.828 0-1.339-.055-1.525-.145-.186-.083-.325-.245-.404-.47-.072-.178-.107-.778-.115-1.827v-7.353h4.41c1.933 0 3.367.177 4.318.54.95.352 1.648.877 2.127 1.571zm-6.886-40.143c-20.103 0-36.401 16.237-36.401 36.263 0 20.027 16.298 36.264 36.4 36.264 20.095 0 36.394-16.225 36.394-36.264-.004-20.026-16.3-36.263-36.393-36.263zm14.8 48.586c-1.08 1.527-2.622 2.683-4.619 3.477-.729.284-1.584.525-2.555.718v6.066h-5.78v-5.596c-.139 0-.278.008-.424.008h-3.28v5.588h-5.78v-5.588h-8.816v-4.693h1.347c.908 0 1.502-.083 1.819-.241.317-.158.543-.371.673-.655.131-.284.194-.916.194-1.91v-18.957c0-1.003-.063-1.65-.194-1.926a1.463 1.463 0 0 0-.673-.655c-.317-.162-.911-.245-1.819-.245h-1.347v-4.697h8.815v-5.593h5.78v5.59h3.709v-5.59h5.78v6c.852.17 1.632.363 2.29.631 1.696.695 3.003 1.681 3.914 2.968.9 1.295 1.355 2.716 1.355 4.255a7.34 7.34 0 0 1-.72 3.193c-.472 1.01-1.178 1.89-2.08 2.668-.908.77-2.105 1.409-3.598 1.91 1.6.403 2.825.857 3.668 1.342 1.233.687 2.191 1.642 2.908 2.87.721 1.23 1.082 2.589 1.082 4.1 0 1.784-.559 3.45-1.648 4.962zm9.573-90.005c-3.376 0-6.106-2.723-6.106-6.086 0-3.358 2.73-6.082 6.106-6.082 3.375 0 6.113 2.724 6.113 6.082 0 3.36-2.738 6.086-6.113 6.086zm-81.055 3.126c0 6.631-5.392 12.007-12.048 12.007-6.655 0-12.055-5.376-12.055-12.007 0-6.634 5.4-12.006 12.055-12.006 6.656 0 12.048 5.376 12.048 12.006zm-18.818 74.99c0 4.457-3.621 8.064-8.086 8.064s-8.094-3.615-8.094-8.063c0-4.449 3.629-8.056 8.094-8.056s8.086 3.607 8.086 8.056z" transform="translate(-257 -1234)"/>
</svg>
