<svg xmlns="http://www.w3.org/2000/svg" width="56" height="73" viewBox="0 0 56 73">
    <path fill="#4B35E6" fill-rule="nonzero" d="M42.981 14.8l2.634-10.39-6.424-1.575-2.566 10.116c-1.687-.414-3.42-.807-5.144-1.192l2.576-10.183L27.639 0l-2.627 10.386-12.954-3.16-1.709 6.756s4.766 1.075 4.665 1.142c2.601.64 3.073 2.335 2.994 3.679L10.8 47.266c-.318.778-1.125 1.945-2.943 1.498.065.093-4.668-1.152-4.668-1.152L0 54.862l12.935 3.217-2.658 10.51 6.415 1.576 2.634-10.398c1.756.468 3.453.9 5.116 1.308l-2.623 10.35L28.242 73l2.659-10.49c10.952 2.04 19.189 1.217 22.651-8.531 2.793-7.854-.137-12.384-5.9-15.34 4.197-.957 7.357-3.674 8.2-9.29 1.17-7.674-4.76-11.798-12.87-14.549zM41.18 49.61c-1.99 7.854-15.414 3.61-19.77 2.544l3.527-13.923c4.353 1.07 18.313 3.188 16.245 11.378m1.99-20.375c-1.811 7.147-12.989 3.516-16.616 2.625l3.193-12.632c3.63.892 15.306 2.554 13.418 10.006" opacity=".124"/>
</svg>
