<svg xmlns="http://www.w3.org/2000/svg" width="17" height="18" viewBox="0 0 17 18">
    <path fill="#4B35E6" fill-rule="nonzero" d="M16.783 7.04L8.73.163a.708.708 0 0 0-.92.012L.203 7.051A.605.605 0 0 0 0 7.5v9.875c0 .345.3.625.671.625h5.592c.37 0 .671-.28.671-.625v-4.583h3.132v4.583c0 .345.3.625.67.625h5.593c.37 0 .671-.28.671-.625V7.5a.606.606 0 0 0-.217-.46zm-1.125 9.71h-4.25v-4.583c0-.346-.3-.625-.671-.625H6.263c-.37 0-.67.28-.67.625v4.583h-4.25V7.764l6.947-6.28 7.368 6.291v8.975z"/>
</svg>
