<svg xmlns="http://www.w3.org/2000/svg" width="18" height="22" viewBox="0 0 18 22">
    <g fill="#FFF" fill-rule="nonzero" stroke="#FFF" stroke-width=".5">
        <path d="M16.996 5.073a.457.457 0 0 0-.146-.328l-3.823-3.607A.513.513 0 0 0 12.673 1H2.052C1.472 1 1 1.445 1 1.992v18.141c0 .547.472.992 1.052.992h13.893c.58 0 1.052-.445 1.052-.992V5.078l-.001-.005zM13.173 2.61l2.118 1.998h-2.065c-.03 0-.053-.022-.053-.05V2.61zm2.825 17.524c0 .027-.024.05-.053.05H2.052c-.03 0-.053-.023-.053-.05V1.992c0-.027.024-.05.053-.05h10.122v2.615c0 .547.472.992 1.052.992h2.772v14.584z"/>
        <path d="M12.94 8.326H5.06c-.245 0-.444.238-.444.532 0 .295.199.533.445.533h7.878c.246 0 .445-.238.445-.533 0-.294-.2-.532-.445-.532zM12.94 11.54H5.06c-.245 0-.444.239-.444.533 0 .294.199.532.445.532h7.878c.246 0 .445-.238.445-.532 0-.294-.2-.533-.445-.533zM12.94 14.754H5.06c-.245 0-.444.239-.444.533 0 .294.199.533.445.533h7.878c.246 0 .445-.239.445-.533 0-.294-.2-.533-.445-.533z"/>
    </g>
</svg>
