<svg xmlns="http://www.w3.org/2000/svg" width="13" height="20" viewBox="0 0 13 20">
    <path fill="#DA1701" fill-rule="evenodd" stroke="#DA1701" d="M6.5 1a.772.772 0 0 0-.56.21.716.716 0 0 0-.218.54v14.672l-3.354-3.188c-.357-.375-.722-.382-1.094-.023-.373.36-.365.71.024 1.055l4.667 4.5a.466.466 0 0 0 .243.187.931.931 0 0 0 .584 0 .466.466 0 0 0 .243-.187l4.667-4.5c.389-.344.397-.696.024-1.055-.372-.36-.737-.352-1.094.023l-3.354 3.188V1.75a.716.716 0 0 0-.219-.54A.772.772 0 0 0 6.5 1z"/>
</svg>
