<svg xmlns="http://www.w3.org/2000/svg" width="18" height="20" viewBox="0 0 18 20">
    <path fill="#FFF" fill-rule="nonzero" stroke="#444DEF" stroke-width=".2" d="M16.273 4.706c.401 0 .727.331.727.74 0 .41-.326.742-.727.742H3.483l2.395 2.44a.751.751 0 0 1 0 1.048.718.718 0 0 1-1.029 0L1.213 5.971a.751.751 0 0 1 0-1.048l3.636-3.706a.718.718 0 0 1 1.029 0 .751.751 0 0 1 0 1.048l-2.395 2.44h12.79zm-3.122 5.618l3.636 3.705a.751.751 0 0 1 0 1.048l-3.636 3.706a.718.718 0 0 1-1.029 0 .751.751 0 0 1 0-1.048l2.395-2.44H1.727A.734.734 0 0 1 1 14.552c0-.409.326-.74.727-.74h12.79l-2.395-2.441a.751.751 0 0 1 0-1.048.718.718 0 0 1 1.029 0z"/>
</svg>
