<svg xmlns="http://www.w3.org/2000/svg" width="152" height="155" viewBox="0 0 152 155">
    <defs>
        <linearGradient id="a" x1="0%" y1="0%" y2="100%">
            <stop offset="0%" stop-color="#3D6BFB"/>
            <stop offset="100%" stop-color="#5A00D1"/>
        </linearGradient>
    </defs>
    <path fill="url(#a)" fill-rule="nonzero" d="M1172.72 1290.224c-.043 0-.082.011-.122.011-.126-.004-.249-.01-.375-.01h.498zm-.187 19.122c-.021 0-.047-.007-.068-.007-.015 0-.033.007-.047.007h.115zm-7.01-7.041c.015 0 .03-.022.047-.022 1.114 3.997 3.98 6.987 6.895 7.056 2.656-.115 5.918-3.066 6.999-7.042.504.033.998-.553 1.135-1.376.144-.848-.155-1.614-.678-1.704-.036-.007-.068.015-.093.015-.152-6.582-3.284-8.907-7.234-9.004-4.072.018-7.723 2.843-7.489 9.007-.04 0-.075-.025-.111-.018-.52.086-.822.845-.678 1.704.148.855.685 1.477 1.207 1.384zm12.427 8.18l-3.698 7.225-.587-4.705.915-.744h-4.234l.915.744-.587 4.705-3.687-7.225c-6.434.863-11.043 3.616-11.043 10.29H1189c-.007-6.674-4.62-9.427-11.05-10.29zm-124.66-20.26c.126 0 .249.006.375.01.04 0 .08-.01.123-.01h-.498zm.307 19.12c-.022 0-.044-.006-.065-.006-.015 0-.033.007-.047.007h.112zm-7.007-7.04c.015 0 .03-.022.047-.022 1.11 3.997 3.979 6.987 6.895 7.056 2.656-.115 5.918-3.066 7.002-7.042.501.033.999-.553 1.14-1.376.143-.848-.156-1.614-.678-1.704-.033-.007-.069.015-.098.015-.151-6.582-3.283-8.907-7.233-9.004-4.073.018-7.72 2.843-7.49 9.007-.039 0-.075-.025-.11-.018-.52.086-.823.845-.678 1.704.144.855.68 1.477 1.203 1.384zm12.427 8.18l-3.698 7.225-.587-4.705.915-.744H1051.41l.915.744-.587 4.705-3.694-7.225c-6.43.863-11.043 3.616-11.043 10.29h33.056c.004-6.674-4.61-9.427-11.039-10.29zm53.74-82.485c.126 0 .248.007.375.014.04 0 .079-.014.122-.014h-.497zm.306 19.122c-.022 0-.043-.004-.065-.004-.014 0-.032.004-.047.004h.112zm-7.006-7.038c.014-.004.029-.022.047-.025 1.11 4 3.979 6.99 6.894 7.059 2.656-.115 5.918-3.066 7-7.041.504.032.998-.557 1.134-1.377.145-.852-.154-1.614-.677-1.704-.036-.007-.069.015-.094.015-.151-6.581-3.283-8.91-7.233-9.007-4.073.021-7.72 2.843-7.49 9.007-.039 0-.075-.022-.111-.014-.519.082-.822.844-.678 1.703.148.845.685 1.47 1.208 1.384zm12.427 8.173l-3.698 7.221-.588-4.701.916-.744h-4.239l.916.744-.588 4.701-3.694-7.22c-6.43.862-11.042 3.612-11.042 10.29h33.056c.003-6.678-4.61-9.428-11.04-10.29zm-5.727 104.192c.126 0 .248.007.375.014.04 0 .079-.014.122-.014h-.497zm.306 19.125c-.022 0-.043-.007-.065-.007-.014 0-.032.007-.047.007h.112zm-7.42-10.111c-.04 0-.076-.022-.112-.014-.52.079-.822.844-.678 1.703.144.845.678 1.474 1.2 1.384.015 0 .03-.021.047-.021 1.11 4 3.979 6.987 6.895 7.055 2.652-.111 5.921-3.066 7.002-7.041.501.036.991-.554 1.132-1.377.144-.848-.155-1.613-.678-1.703-.036-.008-.072.014-.097.014-.151-6.585-3.283-8.91-7.233-9.007-4.062.021-7.706 2.843-7.479 9.007zm12.84 11.25l-3.697 7.217-.588-4.7.916-.745h-4.239l.916.744-.588 4.701-3.694-7.217c-6.43.86-11.042 3.609-11.042 10.287h33.056c.003-6.678-4.61-9.428-11.04-10.287zm-2.875-69.704c.587-.212 1.03-.521 1.33-.934.299-.414.45-.899.45-1.445 0-.557-.14-1.046-.422-1.442-.28-.399-.692-.682-1.236-.855-.53-.169-1.496-.248-2.876-.248h-2.368v5.244h2.368c1.243-.01 2.155-.111 2.754-.32zm21.977 2.35c0 13.551-11.014 24.521-24.59 24.521-13.58 0-24.583-10.977-24.583-24.52s11.006-24.52 24.583-24.52c13.587 0 24.59 10.977 24.59 24.52zm-14.178 4.655c0-.956-.224-1.825-.678-2.598a4.756 4.756 0 0 0-1.845-1.815c-.534-.317-1.308-.597-2.325-.852.948-.317 1.705-.715 2.274-1.208.573-.496 1.013-1.053 1.316-1.696.306-.64.458-1.312.458-2.02a4.64 4.64 0 0 0-.858-2.703c-.577-.813-1.41-1.434-2.48-1.873-.414-.176-.908-.302-1.445-.399v-3.799h-3.658v3.533h-2.346v-3.533h-3.658v3.533h-5.58v2.976h.855c.566 0 .951.061 1.15.155.205.093.345.24.425.42.083.17.122.583.122 1.222v12.002c0 .632-.04 1.024-.122 1.215a.785.785 0 0 1-.426.406c-.201.093-.583.147-1.15.147h-.853v2.976h5.579v3.54h3.658v-3.54h2.346v3.54h3.658v-3.835a9.043 9.043 0 0 0 1.611-.449c1.272-.51 2.238-1.247 2.926-2.203a5.146 5.146 0 0 0 1.046-3.142zm-7.392-3.191c-.599-.223-1.51-.342-2.736-.342h-2.793v4.655c.015.672.036 1.053.076 1.157.05.148.137.241.256.302s.44.08.962.08h1.579c.915 0 1.675-.08 2.274-.252.605-.17 1.117-.525 1.542-1.054.422-.535.631-1.182.631-1.926 0-.643-.144-1.179-.447-1.621-.3-.442-.746-.776-1.344-1zm39.02.474h-10.88c-.977 15.69-13.605 28.237-29.358 29.143v10.984c0 .985-.808 1.797-1.802 1.797a1.805 1.805 0 0 1-1.802-1.797v-10.984c-15.75-.899-28.382-13.454-29.359-29.143h-10.877a1.805 1.805 0 0 1-1.802-1.797c0-.988.807-1.797 1.802-1.797h10.863c.84-15.815 13.53-28.52 29.369-29.427v-10.703a1.8 1.8 0 0 1 1.802-1.797 1.8 1.8 0 0 1 1.802 1.797v10.707c15.843.906 28.533 13.604 29.362 29.426h10.87c.99 0 1.802.81 1.802 1.798 0 .984-.797 1.793-1.791 1.793zm-14.383-1.937c0-15.204-12.402-27.576-27.657-27.576-15.245 0-27.65 12.368-27.65 27.576 0 15.204 12.4 27.582 27.65 27.582 15.248 0 27.657-12.378 27.657-27.582z" transform="translate(-1037 -1228)"/>
</svg>
