<svg xmlns="http://www.w3.org/2000/svg" width="25" height="25" viewBox="0 0 25 25">
    <path fill="#4B35E6" fill-rule="evenodd" d="M12.5 0C9.05 0 6.104 1.22 3.662 3.662 1.221 6.104 0 9.05 0 12.5c0 3.45 1.22 6.396 3.662 8.838C6.104 23.779 9.05 25 12.5 25c3.45 0 6.396-1.22 8.838-3.662C23.779 18.896 25 15.95 25 12.5c0-3.45-1.22-6.396-3.662-8.838C18.896 1.221 15.95 0 12.5 0zm0 22.656c-2.8 0-5.192-.993-7.178-2.978-1.985-1.986-2.978-4.379-2.978-7.178 0-2.8.993-5.192 2.978-7.178C7.308 3.337 9.701 2.344 12.5 2.344c2.8 0 5.192.993 7.178 2.978 1.985 1.986 2.978 4.379 2.978 7.178 0 2.8-.993 5.192-2.978 7.178-1.986 1.985-4.379 2.978-7.178 2.978zM15.283 6.69a1.13 1.13 0 0 0-.83-.341 1.13 1.13 0 0 0-.83.341l-4.98 4.98a1.13 1.13 0 0 0-.342.831c0 .326.114.602.342.83l4.931 4.932c.26.26.545.39.855.39.309 0 .578-.13.805-.39.26-.228.391-.497.391-.806 0-.31-.13-.578-.39-.806l-4.102-4.15 4.15-4.15a1.13 1.13 0 0 0 .342-.83 1.13 1.13 0 0 0-.342-.83z"/>
</svg>
