<svg xmlns="http://www.w3.org/2000/svg" width="32" height="39" viewBox="0 0 32 39">
    <g fill="#4B35E6" fill-rule="nonzero">
        <ellipse cx="16" cy="16.9" rx="1" ry="1"/>
        <ellipse cx="17.92" cy="15.6" rx="1" ry="1"/>
        <ellipse cx="14.08" cy="15.6" rx="1" ry="1"/>
        <ellipse cx="12.16" cy="14.3" rx="1" ry="1"/>
        <ellipse cx="19.84" cy="14.3" rx="1" ry="1"/>
        <ellipse cx="21.76" cy="13" rx="1" ry="1"/>
        <ellipse cx="10.24" cy="13" rx="1" ry="1"/>
        <ellipse cx="16" cy="14.3" rx="1" ry="1"/>
        <ellipse cx="16" cy="22.1" rx="1" ry="1"/>
        <ellipse cx="16" cy="24.05" rx="1" ry="1"/>
        <ellipse cx="16" cy="26" rx="1" ry="1"/>
        <ellipse cx="16" cy="27.95" rx="1" ry="1"/>
        <ellipse cx="16" cy="29.9" rx="1" ry="1"/>
        <ellipse cx="16" cy="31.85" rx="1" ry="1"/>
        <path d="M31.36 37.7h-1.92v-2.6h-3.2v-6.644a5.252 5.252 0 0 0-2.297-4.36l-6.79-4.596 6.79-4.597a5.252 5.252 0 0 0 2.297-4.359V3.9h3.2V1.3h1.92c.353 0 .64-.29.64-.65 0-.36-.287-.65-.64-.65H.64C.287 0 0 .29 0 .65c0 .36.287.65.64.65h1.92v2.6h3.2v6.644c0 1.755.859 3.386 2.297 4.36l6.79 4.596-6.79 4.597a5.252 5.252 0 0 0-2.297 4.359V35.1h-3.2v2.6H.64c-.353 0-.64.29-.64.65 0 .36.287.65.64.65h30.72c.353 0 .64-.29.64-.65 0-.36-.287-.65-.64-.65zM3.84 2.6V1.3h24.32v1.3H3.84zm4.927 11.222a3.95 3.95 0 0 1-1.727-3.278V3.9h17.92v6.644a3.95 3.95 0 0 1-1.727 3.278L16 18.719l-7.233-4.897zM7.04 28.456a3.95 3.95 0 0 1 1.727-3.278L16 20.281l7.233 4.897a3.95 3.95 0 0 1 1.727 3.278V35.1H7.04v-6.644zM3.84 36.4h24.32v1.3H3.84v-1.3z"/>
    </g>
</svg>
