<svg xmlns="http://www.w3.org/2000/svg" width="28" height="42" viewBox="0 0 28 42">
    <path fill="#FFF" fill-rule="nonzero" stroke="#FFF" d="M26.106 10.221h-5.77c-.385-3.48-2.005-5.987-4.097-7.519h9.867c.47 0 .852-.382.852-.85A.853.853 0 0 0 26.106 1H1.852A.853.853 0 0 0 1 1.851c0 .47.382.851.852.851h10.31c2.755.508 5.892 2.797 6.471 7.52H1.853a.853.853 0 0 0-.853.85c0 .47.382.851.852.851h16.89c-.033 2.367-.844 4.285-2.435 5.7-4.508 4-13.712 2.98-13.802 2.972a.868.868 0 0 0-.852.448.851.851 0 0 0 .107.955l16.184 18.708a.851.851 0 0 0 1.203.087.852.852 0 0 0 .088-1.201L4.378 22.419c3.205.083 9.348-.226 13.06-3.521 1.97-1.749 2.976-4.1 3.01-6.975h5.658a.851.851 0 0 0 0-1.702z"/>
</svg>
