<svg xmlns="http://www.w3.org/2000/svg" width="149" height="144" viewBox="0 0 149 144">
    <path fill="#FFF" fill-rule="nonzero" d="M112.31 72.004c0-22.104-17.936-40.09-40.001-40.09-22.065 0-40.024 17.986-40.024 40.09 0 22.105 17.954 40.09 40.024 40.09 22.06 0 40.002-17.985 40.002-40.09zm-40.005 35.769c-19.723 0-35.705-16.011-35.705-35.769 0-19.753 15.982-35.768 35.705-35.768 19.704 0 35.687 16.015 35.687 35.768s-15.983 35.769-35.687 35.769zm-.208-38.618h-3.281v-7.31h3.281c1.915 0 3.247.116 3.986.354.74.234 1.318.637 1.712 1.196.393.554.596 1.23.596 2.022 0 .754-.211 1.43-.63 2.01-.42.576-1.025 1.009-1.851 1.299-.817.286-2.097.429-3.813.429zm6.251 6.275c.42.624.623 1.373.623 2.26 0 1.049-.299 1.945-.882 2.69-.584.745-1.288 1.226-2.127 1.473-.839.233-1.894.355-3.156.355h-2.188c-.726 0-1.171-.035-1.34-.122-.16-.073-.28-.216-.354-.42-.06-.151-.091-.688-.095-1.615v-6.496h3.873c1.7 0 2.962.16 3.792.472.821.325 1.43.788 1.854 1.403zm-6.043-35.435c-17.652 0-31.957 14.335-31.957 32.01 0 17.682 14.305 32.013 31.957 32.013 17.638 0 31.939-14.33 31.939-32.014 0-17.674-14.305-32.009-31.94-32.009zm12.99 42.893c-.955 1.347-2.304 2.36-4.055 3.062-.635.26-1.392.463-2.248.632v5.353h-5.07v-4.942c-.126 0-.247.005-.372.005h-2.88v4.937h-5.075v-4.937h-7.738v-4.15h1.175c.8 0 1.323-.069 1.6-.203.272-.134.471-.329.592-.58.117-.26.173-.814.173-1.69V63.638c0-.888-.056-1.455-.173-1.702a1.264 1.264 0 0 0-.592-.58c-.281-.143-.804-.212-1.6-.212h-1.175v-4.14h7.738V52.07h5.075v4.932h3.251V52.07h5.071v5.292c.748.147 1.436.32 2.015.558 1.491.611 2.637 1.482 3.428 2.62a6.404 6.404 0 0 1 1.19 3.76c0 .983-.213 1.927-.632 2.815a6.99 6.99 0 0 1-1.829 2.351c-.8.68-1.85 1.243-3.156 1.69 1.405.35 2.482.753 3.221 1.182 1.077.606 1.91 1.442 2.555 2.529.631 1.083.955 2.282.955 3.616 0 1.594-.488 3.062-1.443 4.405zm45.298 6.712v6.497a2.175 2.175 0 0 1-2.161 2.165 2.17 2.17 0 0 1-2.162-2.165V89.6c0-1.195.969-2.165 2.162-2.165a2.17 2.17 0 0 1 2.161 2.165zM18.624 116.508a2.153 2.153 0 0 1-1.193 2.81 2.156 2.156 0 0 1-2.814-1.19 20.16 20.16 0 0 1-1.47-7.605v-5.903c0-1.196.968-2.166 2.161-2.166 1.19 0 2.162.97 2.162 2.166v5.903a15.908 15.908 0 0 0 1.154 5.985zm-5.473-76.21v-6.825c0-2.278.372-4.513 1.111-6.644a2.152 2.152 0 0 1 2.75-1.333 2.16 2.16 0 0 1 1.331 2.754 15.913 15.913 0 0 0-.869 5.223v6.825a2.167 2.167 0 0 1-2.161 2.166 2.156 2.156 0 0 1-2.162-2.166zm0 25.734V53.165c0-1.195.968-2.165 2.162-2.165 1.188 0 2.161.97 2.161 2.165v12.867a2.162 2.162 0 1 1-4.323 0zm0 25.725V78.886a2.17 2.17 0 0 1 2.162-2.165c1.188 0 2.161.978 2.161 2.165v12.871a2.17 2.17 0 0 1-2.161 2.166 2.159 2.159 0 0 1-2.162-2.166zm34.218-76.413c0-1.195.968-2.165 2.161-2.165h12.844a2.164 2.164 0 1 1 0 4.33H49.53a2.162 2.162 0 0 1-2.161-2.165zm75.417 8.177a2.167 2.167 0 0 1 3.385-2.703 20.412 20.412 0 0 1 4.414 12.655v.654a2.167 2.167 0 0 1-2.162 2.165 2.167 2.167 0 0 1-2.161-2.165v-.654a15.74 15.74 0 0 0-3.476-9.952zm-24.05-8.177c0-1.195.969-2.165 2.162-2.165h9.437c1.267 0 2.542.117 3.783.355a2.159 2.159 0 0 1 1.72 2.529 2.16 2.16 0 0 1-2.524 1.724 16.11 16.11 0 0 0-2.987-.277h-9.434a2.16 2.16 0 0 1-2.157-2.166zm-25.684 0c0-1.195.973-2.165 2.162-2.165h12.848a2.17 2.17 0 0 1 2.162 2.165 2.17 2.17 0 0 1-2.162 2.166H75.214a2.164 2.164 0 0 1-2.162-2.166zm-48.769 4.634a2.15 2.15 0 0 1-1.868-1.074 2.17 2.17 0 0 1 .774-2.962 20.305 20.305 0 0 1 10.216-2.768h3.277c1.193 0 2.161.97 2.161 2.166a2.164 2.164 0 0 1-2.161 2.165h-3.277c-2.832 0-5.607.754-8.028 2.174a2.124 2.124 0 0 1-1.094.3zm66.849 108.687a2.17 2.17 0 0 1-2.162 2.165H76.122a2.17 2.17 0 0 1-2.162-2.165 2.17 2.17 0 0 1 2.162-2.166H88.97a2.17 2.17 0 0 1 2.162 2.166zm39.461-19.701v1.572c0 4.274-1.322 8.376-3.804 11.827-.432.598-1.09.901-1.755.901a2.167 2.167 0 0 1-1.755-3.43 15.856 15.856 0 0 0 2.987-9.298v-1.572c0-1.196.973-2.166 2.161-2.166 1.19 0 2.166.966 2.166 2.166zm-13.877 18.678a2.173 2.173 0 0 1-1.59 2.616c-1.557.377-3.161.572-4.774.572h-8.542a2.167 2.167 0 0 1-2.162-2.165c0-1.191.969-2.166 2.162-2.166h8.525c1.275-.182 2.534-.147 3.766-.45 1.145-.29 2.33.433 2.615 1.593zm-76.956 1.023a2.167 2.167 0 0 1-2.162 2.165H33.41c-3.242 0-6.463-.788-9.32-2.265a2.176 2.176 0 0 1-.921-2.923 2.156 2.156 0 0 1 2.913-.923 15.818 15.818 0 0 0 7.328 1.784h4.19a2.16 2.16 0 0 1 2.16 2.162zm25.684 0a2.167 2.167 0 0 1-2.162 2.165h-12.84a2.167 2.167 0 0 1-2.161-2.165c0-1.191.968-2.166 2.161-2.166h12.84c1.198 0 2.162.975 2.162 2.166zm65.15-81.459v6.496a2.17 2.17 0 0 1-2.162 2.166 2.164 2.164 0 0 1-2.162-2.166v-6.496c0-1.195.969-2.165 2.162-2.165a2.17 2.17 0 0 1 2.161 2.165zm18.377 24.798l.013-1.914c.056-4.183.09-7.795-2.226-10.147-.805-.81-1.816-1.343-3.014-1.663V25.985C143.744 11.655 132.111 0 117.806 0H25.939C11.629 0 0 11.654 0 25.985v92.03C0 132.345 11.63 144 25.939 144h91.867c14.305 0 25.938-11.654 25.938-25.985V85.72c1.198-.32 2.222-.853 3.014-1.663 2.312-2.352 2.27-5.964 2.226-10.147l-.013-1.906zm-31.165 63.339H25.939c-9.537 0-17.293-7.77-17.293-17.324V25.99c0-9.554 7.756-17.323 17.293-17.323h91.867c9.536 0 17.292 7.77 17.292 17.323v31.94h-5.944c-7.747 0-14.05 6.314-14.05 14.075 0 7.761 6.303 14.076 14.05 14.076h5.944v31.94c0 9.553-7.756 17.323-17.292 17.323zm26.85-61.368c.04 3.075.078 5.98-.98 7.046-.269.269-.692.446-1.198.563a4.33 4.33 0 0 0-3.065-1.277c-1.267 0-2.391.567-3.174 1.442h-7.094c-5.365 0-9.727-4.37-9.727-9.745 0-5.374 4.362-9.744 9.727-9.744h6.848c.795 1.07 1.993 1.806 3.42 1.806 1.344 0 2.481-.645 3.28-1.602.42.12.757.29.987.524 1.054 1.065 1.011 3.97.985 7.046l-.017 1.97.009 1.97zm-7.937-1.97c0 3.59-2.9 6.496-6.484 6.496a6.487 6.487 0 0 1-6.485-6.497c0-3.59 2.9-6.496 6.485-6.496a6.487 6.487 0 0 1 6.484 6.496z"/>
</svg>
