<svg xmlns="http://www.w3.org/2000/svg" width="16" height="15" viewBox="0 0 16 15">
    <g fill="#FFF" fill-rule="nonzero">
        <path d="M11.38.03H1.917C.86.03 0 .91 0 1.988c0 1.08.86 1.958 1.917 1.958V2.709a.715.715 0 0 1-.706-.721c0-.398.316-.721.706-.721h8.857v2.06h1.21V.65A.612.612 0 0 0 11.38.03z"/>
        <path d="M15.395 2.71H1.917a.715.715 0 0 1-.706-.722.612.612 0 0 0-.606-.618.612.612 0 0 0-.605.618v11.024c0 1.08.86 1.958 1.917 1.958h13.478A.612.612 0 0 0 16 14.35V3.327a.612.612 0 0 0-.605-.618zm-.606 11.023H1.917a.715.715 0 0 1-.706-.72V3.807c.218.089.457.138.706.138h12.872v9.787z"/>
        <path d="M12.691 9.962a.98.98 0 0 1-.969-.989.98.98 0 0 1 .969-.989h2.683V6.748h-2.683c-1.202 0-2.18.998-2.18 2.225s.978 2.226 2.18 2.226h2.704V9.962H12.69z"/>
    </g>
</svg>
